<svg xmlns="http://www.w3.org/2000/svg" id="bishop" viewBox="0 0 100 100" stroke="white">
    <path d="M37 40c0-1.1.9-2 2-2h22c1.1 0 2 .9 2 2s-.9 2-2 2H39c-1.1 0-2-.9-2-2zm-3 44h32c1.1 0 2-.9 2-2s-.9-2-2-2H34c-1.1 0-2 .9-2 2s.9 2 2 2zm35 1H31c-2.2 0-4 1.8-4 4s1.8 4 4 4h38c2.2 0 4-1.8 4-4s-1.8-4-4-4zM40.95 43c-.358 27.587-2.586 30.262-3.528 36h25.156c-.942-5.738-3.17-8.413-3.528-36h-18.1zM59 37s4-6 4-11c0-4.411-10.112-13.489-12.496-19h-1.008c-.871 2.015-2.776 4.506-4.842 7.072l4.24 8.48-1.789.895-3.834-7.668C40.1 19.685 37 23.558 37 26c0 5 4 11 4 11h18z"/>
</svg>