<svg xmlns="http://www.w3.org/2000/svg" id="horse" fill="white" stroke="black" viewBox="0 0 100 100"><path d="M31.375 40.219l1.249 1.562-5.475 4.379C27.676 48.357 29.645 50 32 50a5.007 5.007 0 004.954-4.321l5.849-2.507c2.944 2.45 7.337 2.296 10.097-.465 2.924-2.924 2.924-7.682 0-10.606l.707-.707a8.446 8.446 0 012.49 6.01 8.46 8.46 0 01-.884 3.765 8.656 8.656 0 01-.681 1.139l-.074.1a8.339 8.339 0 01-.851 1.007c-.276.276-.57.523-.873.752-.07.053-.143.101-.213.151a8.522 8.522 0 01-5.669 1.549C45.944 52.159 40.545 57 34 57l2 22h28c0-9.957 2.698-18.563 5.535-25.822C64.908 57.412 58.751 60 52 60v-1c13.785 0 25-11.215 25-25S65.785 9 52 9h-1v10h-1v-4h-7a7 7 0 00-7 7c0 1.831-16 7.76-16 16a7.001 7.001 0 005.58 6.855l5.795-4.636zm14.11-20.076l1.029 1.715-5 3-1.029-1.715 5-3zm-22.04 18.025l3-2 1.109 1.664-3 2-1.109-1.664zM69 80c1.1 0 2 .9 2 2s-.9 2-2 2H31c-1.1 0-2-.9-2-2s.9-2 2-2h38zm7 9c0 2.2-1.8 4-4 4H28c-2.2 0-4-1.8-4-4s1.8-4 4-4h44c2.2 0 4 1.8 4 4z"/></svg>